<svg width="65" height="62" viewBox="0 0 65 62" fill="none" xmlns="http://www.w3.org/2000/svg">
<path d="M24.5042 46.3513C25.5966 45.1232 26.6285 43.8403 27.7977 42.6889C28.3796 42.1187 29.5104 41.2689 29.8562 41.4718C30.5862 41.8994 31.3932 42.9137 31.4206 43.7142C31.5743 47.9303 31.5578 52.1574 31.4645 56.3736C31.4041 59.1149 30.0154 60.82 27.1226 61.0448C26.7273 61.0722 26.3376 61.1435 25.9424 61.1983C13.0538 63.0241 9.17839 59.9593 8.55262 46.8831C8.47577 45.3096 10.0567 42.8424 11.5168 42.1626C15.3043 40.3917 19.4322 39.3171 23.4723 38.1383C24.2792 37.9026 25.3221 38.4618 26.2553 38.6537C26.0632 39.5638 26.0412 40.5562 25.635 41.3566C24.9488 42.6999 24.0157 43.9225 23.1813 45.1945C23.6205 45.5783 24.0596 45.9675 24.4987 46.3513H24.5042Z" fill="white"/>
<path d="M41.8281 45.4302C40.9608 43.9773 40.0057 42.5683 39.2646 41.0551C38.9243 40.3588 38.6224 39.1745 38.9682 38.7359C39.3854 38.2041 40.6205 37.8697 41.3121 38.0725C45.6156 39.3445 49.996 40.5123 54.069 42.338C55.3809 42.9247 56.7697 45.5563 56.5336 46.9818C55.82 51.2419 54.4807 55.4306 53.0096 59.5097C52.6638 60.4637 50.8468 61.4176 49.6831 61.4505C45.8626 61.5602 42.0257 61.2477 38.1942 61.0887C35.0489 60.9571 33.7096 59.0108 33.6217 56.1653C33.4955 52.0697 33.501 47.9632 33.6492 43.8677C33.6766 43.0343 34.5823 42.2339 35.0819 41.417C35.8888 41.9104 36.7945 42.2942 37.4751 42.9192C38.6169 43.9664 39.6159 45.1726 40.6753 46.313C41.0596 46.0169 41.4493 45.7208 41.8336 45.4248L41.8281 45.4302Z" fill="white"/>
<path d="M18.2684 30.2378C19.7615 30.8848 21.315 31.4221 22.7202 32.2225C23.4887 32.6611 24.2901 33.4671 24.5206 34.2621C24.6304 34.6513 23.5765 35.704 22.8684 35.9507C18.7625 37.3817 14.662 38.9991 10.4244 39.816C8.90937 40.1121 6.12086 38.8072 5.43471 37.4639C3.48056 33.6261 2.20158 29.4209 0.922597 25.2815C0.670094 24.4591 1.29586 22.8691 2.02592 22.3154C5.28102 19.8427 8.66785 17.5345 12.1206 15.336C14.6401 13.7296 16.8852 14.3217 18.6472 16.7615C21.0405 20.0839 23.5051 23.3571 25.838 26.7179C26.2772 27.3485 26.634 28.7904 26.3431 29.0207C25.6734 29.5689 24.5536 29.8924 23.6808 29.7937C21.9901 29.6018 20.3379 29.0536 18.6692 28.6533C18.5374 29.1797 18.4057 29.706 18.2739 30.2323L18.2684 30.2378Z" fill="white"/>
<path d="M46.4774 28.7958C45.0393 29.059 43.6121 29.4209 42.1629 29.5579C41.098 29.6566 40.0002 29.4647 38.9188 29.4044C39.1219 28.3901 39.0451 27.1894 39.5775 26.3889C41.7732 23.0994 44.161 19.9359 46.4665 16.7121C48.2285 14.2504 50.5065 13.7569 52.9931 15.3414C56.4403 17.5345 59.8217 19.8481 63.0713 22.3153C63.8068 22.8746 64.4216 24.4645 64.1691 25.2979C62.8846 29.4373 61.4245 33.5328 59.7668 37.5352C58.7897 39.8872 56.863 40.7699 54.2447 39.8872C50.3748 38.5769 46.439 37.4584 42.5856 36.0987C41.7677 35.8081 41.1804 34.8487 40.4887 34.2017C41.2353 33.4725 41.8775 32.5624 42.7503 32.047C44.0238 31.2959 45.4674 30.8189 46.8397 30.2268C46.719 29.7498 46.5982 29.2728 46.472 28.7958H46.4774Z" fill="white"/>
<path d="M31.7115 19.2834C31.5468 20.9063 31.5139 22.5566 31.1736 24.1411C30.9814 25.0402 30.2953 25.8297 29.8342 26.6686C29.0986 26.2464 28.1435 25.9997 27.6715 25.3801C25.119 22.0138 22.6982 18.5488 20.2061 15.1331C18.5978 12.9236 18.8833 10.7799 20.8429 9.13506C24.1748 6.33891 27.655 3.71273 31.201 1.19619C31.8323 0.746614 33.3583 0.812405 34.017 1.27843C37.4642 3.70724 40.851 6.24023 44.0896 8.94317C46.1646 10.6757 46.5982 12.8797 44.8417 15.2537C42.3221 18.6475 39.9014 22.1125 37.3269 25.4624C36.8713 26.06 35.7021 26.7069 35.1917 26.5096C34.5714 26.2629 34.0773 25.1883 33.9182 24.3878C33.5833 22.7101 33.4955 20.9776 33.3089 19.2725C32.7764 19.2725 32.244 19.278 31.706 19.2834H31.7115Z" fill="white"/>
<path d="M32.7051 39.4542C29.8013 39.5639 27.1006 36.9157 27.1006 33.9661C27.1006 31.2412 29.6256 28.6863 32.4141 28.5821C35.1752 28.478 37.832 30.8794 38.0241 33.6536C38.2217 36.4936 35.6033 39.35 32.7051 39.4542Z" fill="white"/>
</svg>
