<svg width="738" height="295" viewBox="0 0 738 295" fill="none" xmlns="http://www.w3.org/2000/svg">
<path d="M12.1413 285.6C12.3877 286.453 12.5109 287.334 12.5109 288.244C12.5109 289.135 12.3877 289.978 12.1413 290.774C11.7432 291.988 11.0134 292.954 9.95186 293.675C8.89033 294.376 7.64872 294.727 6.22702 294.727C4.82428 294.727 3.60163 294.386 2.55905 293.703C1.51647 293.002 0.786671 292.064 0.369641 290.888C0.217993 290.471 0.0947796 289.997 0 289.467V289.41C0 289.201 0.113736 289.097 0.341207 289.097H3.04243C3.23199 289.097 3.3552 289.201 3.41207 289.41C3.43102 289.523 3.47841 289.694 3.55424 289.921C3.76275 290.547 4.09448 291.03 4.54942 291.372C5.00437 291.713 5.55409 291.883 6.19859 291.883C6.86205 291.883 7.43072 291.703 7.90462 291.343C8.37852 290.964 8.71025 290.452 8.89981 289.808C9.07041 289.353 9.15571 288.832 9.15571 288.244C9.15571 287.694 9.07989 287.154 8.92824 286.623C8.79555 285.998 8.49226 285.524 8.01836 285.201C7.54446 284.86 6.9663 284.69 6.28389 284.69C5.63939 284.69 5.05175 284.841 4.52099 285.145C4.00918 285.429 3.67745 285.808 3.5258 286.282C3.44998 286.472 3.31729 286.566 3.12773 286.566H0.369641C0.274861 286.566 0.189559 286.538 0.113736 286.481C0.0568678 286.405 0.0284338 286.32 0.0284338 286.225V274.965C0.0284338 274.87 0.0568678 274.795 0.113736 274.738C0.189559 274.662 0.274861 274.624 0.369641 274.624H11.4304C11.5252 274.624 11.601 274.662 11.6579 274.738C11.7337 274.795 11.7716 274.87 11.7716 274.965V277.126C11.7716 277.221 11.7337 277.306 11.6579 277.382C11.601 277.439 11.5252 277.467 11.4304 277.467H3.46894C3.37416 277.467 3.32677 277.515 3.32677 277.61L3.29833 282.728C3.29833 282.804 3.31729 282.851 3.3552 282.87C3.39311 282.87 3.43102 282.851 3.46894 282.813C4.35986 282.15 5.43087 281.818 6.68197 281.818C8.00888 281.818 9.15571 282.159 10.1225 282.841C11.1082 283.505 11.7811 284.424 12.1413 285.6Z" fill="black"/>
<path d="M83.7227 294.528C83.6279 294.528 83.5426 294.499 83.4668 294.442C83.4099 294.367 83.3815 294.281 83.3815 294.187V274.965C83.3815 274.87 83.4099 274.795 83.4668 274.738C83.5426 274.662 83.6279 274.624 83.7227 274.624H90.6606C92.0064 274.624 93.1912 274.861 94.2148 275.335C95.2384 275.809 96.0251 276.491 96.5748 277.382C97.1435 278.254 97.4278 279.278 97.4278 280.453V288.699C97.4278 289.874 97.1435 290.907 96.5748 291.798C96.0251 292.67 95.2384 293.343 94.2148 293.817C93.1912 294.291 92.0064 294.528 90.6606 294.528H83.7227ZM86.6798 291.542C86.6798 291.637 86.7272 291.684 86.822 291.684H90.8027C91.8074 291.684 92.6036 291.372 93.1912 290.746C93.7978 290.102 94.1106 289.249 94.1295 288.187V280.993C94.1295 279.913 93.8262 279.06 93.2196 278.434C92.613 277.79 91.7979 277.467 90.7743 277.467H86.822C86.7272 277.467 86.6798 277.515 86.6798 277.61V291.542Z" fill="black"/>
<path d="M132.292 294.528C132.198 294.528 132.112 294.499 132.037 294.442C131.98 294.367 131.951 294.281 131.951 294.187V274.965C131.951 274.87 131.98 274.795 132.037 274.738C132.112 274.662 132.198 274.624 132.292 274.624H134.908C135.003 274.624 135.079 274.662 135.136 274.738C135.212 274.795 135.25 274.87 135.25 274.965V294.187C135.25 294.281 135.212 294.367 135.136 294.442C135.079 294.499 135.003 294.528 134.908 294.528H132.292Z" fill="black"/>
<path d="M177.039 294.755C175.618 294.755 174.367 294.48 173.286 293.931C172.206 293.362 171.372 292.566 170.784 291.542C170.196 290.519 169.903 289.343 169.903 288.016V281.135C169.903 279.79 170.196 278.614 170.784 277.61C171.372 276.586 172.206 275.799 173.286 275.25C174.367 274.681 175.618 274.397 177.039 274.397C178.442 274.397 179.674 274.671 180.736 275.221C181.816 275.771 182.65 276.52 183.238 277.467C183.826 278.415 184.119 279.486 184.119 280.68V280.908C184.119 281.003 184.082 281.088 184.006 281.164C183.949 281.221 183.873 281.249 183.778 281.249H181.191C181.096 281.249 181.011 281.221 180.935 281.164C180.878 281.088 180.85 281.003 180.85 280.908V280.766C180.85 279.742 180.499 278.899 179.798 278.235C179.115 277.572 178.196 277.24 177.039 277.24C175.883 277.24 174.954 277.591 174.253 278.292C173.552 278.974 173.201 279.884 173.201 281.022V288.13C173.201 289.268 173.57 290.187 174.31 290.888C175.049 291.571 176.006 291.912 177.182 291.912C178.319 291.912 179.21 291.618 179.854 291.03C180.518 290.424 180.85 289.599 180.85 288.557V286.794C180.85 286.699 180.802 286.652 180.707 286.652H177.21C177.115 286.652 177.03 286.623 176.954 286.566C176.897 286.49 176.869 286.405 176.869 286.31V284.206C176.869 284.111 176.897 284.036 176.954 283.979C177.03 283.903 177.115 283.865 177.21 283.865H183.778C183.873 283.865 183.949 283.903 184.006 283.979C184.082 284.036 184.119 284.111 184.119 284.206V287.846C184.119 290.026 183.475 291.722 182.186 292.935C180.916 294.149 179.2 294.755 177.039 294.755Z" fill="black"/>
<path d="M219.158 294.528C219.063 294.528 218.978 294.499 218.902 294.442C218.845 294.367 218.817 294.281 218.817 294.187V274.965C218.817 274.87 218.845 274.795 218.902 274.738C218.978 274.662 219.063 274.624 219.158 274.624H221.774C221.869 274.624 221.945 274.662 222.001 274.738C222.077 274.795 222.115 274.87 222.115 274.965V294.187C222.115 294.281 222.077 294.367 222.001 294.442C221.945 294.499 221.869 294.528 221.774 294.528H219.158Z" fill="black"/>
<path d="M270.331 274.624C270.426 274.624 270.502 274.662 270.558 274.738C270.634 274.795 270.672 274.87 270.672 274.965V277.155C270.672 277.249 270.634 277.335 270.558 277.411C270.502 277.467 270.426 277.496 270.331 277.496H265.099C265.004 277.496 264.957 277.543 264.957 277.638V294.187C264.957 294.281 264.919 294.367 264.843 294.442C264.786 294.499 264.711 294.528 264.616 294.528H262C261.905 294.528 261.82 294.499 261.744 294.442C261.687 294.367 261.659 294.281 261.659 294.187V277.638C261.659 277.543 261.611 277.496 261.517 277.496H256.484C256.389 277.496 256.304 277.467 256.228 277.411C256.171 277.335 256.143 277.249 256.143 277.155V274.965C256.143 274.87 256.171 274.795 256.228 274.738C256.304 274.662 256.389 274.624 256.484 274.624H270.331Z" fill="black"/>
<path d="M345.632 294.528C345.424 294.528 345.291 294.433 345.234 294.243L340.059 274.994L340.031 274.88C340.031 274.709 340.135 274.624 340.344 274.624H343.13C343.339 274.624 343.471 274.719 343.528 274.908L346.77 287.874C346.789 287.931 346.817 287.96 346.855 287.96C346.893 287.96 346.921 287.931 346.94 287.874L350.04 274.908C350.097 274.719 350.22 274.624 350.409 274.624H353.139C353.347 274.624 353.48 274.719 353.537 274.908L356.835 287.903C356.854 287.96 356.883 287.988 356.921 287.988C356.959 287.988 356.987 287.96 357.006 287.903L360.191 274.908C360.247 274.719 360.38 274.624 360.589 274.624H363.233C363.498 274.624 363.603 274.747 363.546 274.994L358.627 294.243C358.57 294.433 358.437 294.528 358.229 294.528H355.584C355.376 294.528 355.243 294.433 355.186 294.243L351.859 280.68C351.84 280.624 351.812 280.595 351.774 280.595C351.736 280.576 351.708 280.605 351.689 280.68L348.504 294.243C348.447 294.433 348.324 294.528 348.135 294.528H345.632Z" fill="black"/>
<path d="M403.257 294.812C401.836 294.812 400.575 294.528 399.476 293.959C398.376 293.371 397.523 292.547 396.917 291.485C396.329 290.424 396.035 289.201 396.035 287.817V281.334C396.035 279.97 396.339 278.766 396.945 277.723C397.552 276.662 398.395 275.847 399.476 275.278C400.575 274.69 401.836 274.397 403.257 274.397C404.698 274.397 405.959 274.69 407.039 275.278C408.139 275.847 408.992 276.662 409.598 277.723C410.205 278.766 410.508 279.97 410.508 281.334V287.817C410.508 289.201 410.205 290.424 409.598 291.485C408.992 292.547 408.139 293.371 407.039 293.959C405.959 294.528 404.698 294.812 403.257 294.812ZM403.257 291.969C404.452 291.969 405.409 291.599 406.129 290.86C406.85 290.121 407.21 289.144 407.21 287.931V281.306C407.21 280.074 406.85 279.088 406.129 278.349C405.409 277.61 404.452 277.24 403.257 277.24C402.082 277.24 401.134 277.61 400.414 278.349C399.694 279.088 399.334 280.074 399.334 281.306V287.931C399.334 289.144 399.694 290.121 400.414 290.86C401.134 291.599 402.082 291.969 403.257 291.969Z" fill="black"/>
<path d="M456.346 294.528C456.157 294.528 456.024 294.442 455.948 294.272L452.195 286.083C452.157 286.007 452.1 285.969 452.024 285.969H448.612C448.517 285.969 448.47 286.017 448.47 286.111V294.187C448.47 294.281 448.432 294.367 448.356 294.442C448.299 294.499 448.224 294.528 448.129 294.528H445.513C445.418 294.528 445.333 294.499 445.257 294.442C445.2 294.367 445.172 294.281 445.172 294.187V274.965C445.172 274.87 445.2 274.795 445.257 274.738C445.333 274.662 445.418 274.624 445.513 274.624H453.332C454.489 274.624 455.512 274.87 456.403 275.363C457.294 275.837 457.986 276.52 458.479 277.411C458.972 278.283 459.218 279.287 459.218 280.425C459.218 281.733 458.877 282.851 458.194 283.78C457.531 284.69 456.602 285.325 455.408 285.685C455.37 285.685 455.342 285.704 455.323 285.742C455.304 285.78 455.304 285.818 455.323 285.855L459.332 294.13C459.37 294.206 459.389 294.262 459.389 294.3C459.389 294.452 459.284 294.528 459.076 294.528H456.346ZM448.612 277.467C448.517 277.467 448.47 277.515 448.47 277.61V283.268C448.47 283.363 448.517 283.41 448.612 283.41H452.877C453.787 283.41 454.517 283.145 455.067 282.614C455.635 282.064 455.92 281.344 455.92 280.453C455.92 279.562 455.635 278.842 455.067 278.292C454.517 277.742 453.787 277.467 452.877 277.467H448.612Z" fill="black"/>
<path d="M493.944 294.528C493.849 294.528 493.764 294.499 493.688 294.442C493.631 294.367 493.603 294.281 493.603 294.187V274.965C493.603 274.87 493.631 274.795 493.688 274.738C493.764 274.662 493.849 274.624 493.944 274.624H496.56C496.655 274.624 496.73 274.662 496.787 274.738C496.863 274.795 496.901 274.87 496.901 274.965V291.542C496.901 291.637 496.948 291.684 497.043 291.684H506.568C506.663 291.684 506.739 291.722 506.796 291.798C506.872 291.855 506.91 291.931 506.91 292.026V294.187C506.91 294.281 506.872 294.367 506.796 294.442C506.739 294.499 506.663 294.528 506.568 294.528H493.944Z" fill="black"/>
<path d="M541.181 294.528C541.086 294.528 541.001 294.499 540.925 294.442C540.868 294.367 540.84 294.281 540.84 294.187V274.965C540.84 274.87 540.868 274.795 540.925 274.738C541.001 274.662 541.086 274.624 541.181 274.624H548.119C549.465 274.624 550.649 274.861 551.673 275.335C552.696 275.809 553.483 276.491 554.033 277.382C554.602 278.254 554.886 279.278 554.886 280.453V288.699C554.886 289.874 554.602 290.907 554.033 291.798C553.483 292.67 552.696 293.343 551.673 293.817C550.649 294.291 549.465 294.528 548.119 294.528H541.181ZM544.138 291.542C544.138 291.637 544.185 291.684 544.28 291.684H548.261C549.266 291.684 550.062 291.372 550.649 290.746C551.256 290.102 551.569 289.249 551.588 288.187V280.993C551.588 279.913 551.284 279.06 550.678 278.434C550.071 277.79 549.256 277.467 548.232 277.467H544.28C544.185 277.467 544.138 277.515 544.138 277.61V291.542Z" fill="black"/>
<path d="M632.748 294.755C631.326 294.755 630.075 294.48 628.995 293.931C627.914 293.362 627.08 292.575 626.493 291.571C625.905 290.566 625.611 289.4 625.611 288.073V281.05C625.611 279.723 625.905 278.557 626.493 277.553C627.08 276.548 627.914 275.771 628.995 275.221C630.075 274.671 631.326 274.397 632.748 274.397C634.151 274.397 635.392 274.662 636.473 275.193C637.553 275.723 638.388 276.472 638.975 277.439C639.563 278.406 639.857 279.524 639.857 280.794C639.857 280.889 639.819 280.974 639.743 281.05C639.686 281.107 639.61 281.135 639.515 281.135L636.899 281.278C636.672 281.278 636.558 281.173 636.558 280.965C636.558 279.846 636.208 278.946 635.506 278.264C634.824 277.581 633.904 277.24 632.748 277.24C631.592 277.24 630.663 277.581 629.962 278.264C629.26 278.946 628.909 279.846 628.909 280.965V288.215C628.909 289.315 629.26 290.206 629.962 290.888C630.663 291.571 631.592 291.912 632.748 291.912C633.904 291.912 634.824 291.58 635.506 290.917C636.208 290.234 636.558 289.334 636.558 288.215C636.558 288.007 636.672 287.903 636.899 287.903L639.515 288.016C639.61 288.016 639.686 288.045 639.743 288.102C639.819 288.159 639.857 288.225 639.857 288.301C639.857 289.59 639.563 290.727 638.975 291.713C638.388 292.68 637.553 293.428 636.473 293.959C635.392 294.49 634.151 294.755 632.748 294.755Z" fill="black"/>
<path d="M681.353 294.755C679.95 294.755 678.709 294.48 677.628 293.931C676.548 293.381 675.704 292.604 675.097 291.599C674.51 290.575 674.216 289.4 674.216 288.073V274.965C674.216 274.87 674.244 274.795 674.301 274.738C674.377 274.662 674.462 274.624 674.557 274.624H677.173C677.268 274.624 677.344 274.662 677.401 274.738C677.476 274.795 677.514 274.87 677.514 274.965V288.13C677.514 289.249 677.865 290.158 678.566 290.86C679.268 291.561 680.197 291.912 681.353 291.912C682.509 291.912 683.438 291.561 684.139 290.86C684.841 290.158 685.191 289.249 685.191 288.13V274.965C685.191 274.87 685.22 274.795 685.277 274.738C685.353 274.662 685.438 274.624 685.533 274.624H688.149C688.243 274.624 688.319 274.662 688.376 274.738C688.452 274.795 688.49 274.87 688.49 274.965V288.073C688.49 289.4 688.196 290.575 687.608 291.599C687.021 292.604 686.187 293.381 685.106 293.931C684.026 294.48 682.775 294.755 681.353 294.755Z" fill="black"/>
<path d="M731.446 274.596C732.64 274.596 733.692 274.842 734.602 275.335C735.512 275.828 736.214 276.529 736.706 277.439C737.218 278.33 737.474 279.363 737.474 280.538C737.474 281.695 737.218 282.718 736.706 283.609C736.195 284.5 735.465 285.192 734.517 285.685C733.588 286.159 732.508 286.396 731.276 286.396H726.726C726.631 286.396 726.584 286.443 726.584 286.538V294.187C726.584 294.281 726.546 294.367 726.47 294.442C726.413 294.499 726.338 294.528 726.243 294.528H723.627C723.532 294.528 723.447 294.499 723.371 294.442C723.314 294.367 723.286 294.281 723.286 294.187V274.937C723.286 274.842 723.314 274.766 723.371 274.709C723.447 274.634 723.532 274.596 723.627 274.596H731.446ZM730.963 283.723C731.93 283.723 732.707 283.439 733.294 282.87C733.882 282.301 734.176 281.552 734.176 280.624C734.176 279.676 733.882 278.908 733.294 278.32C732.707 277.733 731.93 277.439 730.963 277.439H726.726C726.631 277.439 726.584 277.486 726.584 277.581V283.581C726.584 283.676 726.631 283.723 726.726 283.723H730.963Z" fill="black"/>
<path d="M319.8 241.017C307.869 241.017 296.924 238.007 286.964 231.987C276.894 225.967 268.794 217.977 262.665 208.016C256.645 198.056 253.635 187.22 253.635 175.509V165.494C253.635 164.509 254.182 164.016 255.277 164.016H293.367C294.242 164.016 294.68 164.509 294.68 165.494V173.21C294.68 180.762 297.143 187.165 302.068 192.419C306.994 197.564 312.904 200.136 319.8 200.136C326.805 200.136 332.715 197.509 337.531 192.255C342.347 186.892 344.755 180.544 344.755 173.21V150.389C344.755 143.384 342.238 137.528 337.203 132.822C332.168 128.115 325.929 125.762 318.486 125.762C308.854 125.762 300.919 129.593 294.68 137.255L294.023 138.24L258.068 135.449C256.864 135.449 256.262 134.901 256.262 133.807L260.366 41.7018L262.665 1.31344C262.665 0.437809 263.103 0 263.978 0H377.099C377.974 0 378.412 0.437809 378.412 1.31344V37.9256C378.412 39.0202 377.974 39.5674 377.099 39.5674H298.292L296.322 89.8066C299.058 88.4932 302.615 87.3986 306.994 86.523C311.372 85.5379 315.312 85.0454 318.815 85.0454C330.964 85.0454 342.128 88.0006 352.307 93.9111C362.486 99.931 370.586 107.866 376.606 117.717C382.735 127.568 385.8 138.459 385.8 150.389V173.21C385.8 185.359 382.845 196.633 376.934 207.031C370.914 217.32 362.924 225.584 352.964 231.822C343.004 237.952 331.949 241.017 319.8 241.017Z" fill="#00A780"/>
<path d="M476.756 237.733H436.039C435.054 237.733 434.507 237.186 434.397 236.091L394.994 1.31344C394.775 0.437809 395.104 0 395.979 0H433.741C434.616 0 435.164 0.437809 435.382 1.31344L456.562 156.956L479.054 1.31344C479.273 0.437809 479.93 0 481.025 0H511.398C512.274 0 512.821 0.437809 513.04 1.31344L534.547 156.956L556.712 1.31344C556.931 0.437809 557.478 0 558.353 0H595.787C596.881 0 597.319 0.437809 597.1 1.31344L556.712 236.091C556.602 236.529 556.274 236.912 555.727 237.24L555.07 237.733H514.353C513.696 237.733 513.149 237.186 512.711 236.091L495.472 115.419L478.398 236.091C478.288 237.186 477.741 237.733 476.756 237.733Z" fill="#121E20"/>
<path d="M671.474 241.017C659.324 241.017 648.215 237.952 638.145 231.822C628.185 225.693 620.249 217.484 614.339 207.195C608.538 196.797 605.637 185.25 605.637 172.553L605.966 67.6423C605.966 55.1646 608.812 43.8909 614.503 33.8211C620.195 23.642 628.021 15.4877 637.981 9.35827C648.051 3.11942 659.215 0 671.474 0C683.951 0 695.061 3.00997 704.802 9.02991C714.653 15.0499 722.479 23.2042 728.28 33.4928C734.191 43.672 737.146 55.0551 737.146 67.6423V83.0752C737.146 83.9508 736.708 84.3887 735.832 84.3887H698.071C697.195 84.3887 696.757 83.9508 696.757 83.0752V67.6423C696.757 60.1994 694.349 53.7964 689.534 48.4332C684.718 43.0699 678.698 40.3883 671.474 40.3883C663.484 40.3883 657.354 43.1247 653.086 48.5973C648.817 54.07 646.682 60.4183 646.682 67.6423V172.553C646.682 180.762 649.09 187.494 653.906 192.748C658.722 197.892 664.578 200.464 671.474 200.464C678.698 200.464 684.718 197.618 689.534 191.927C694.349 186.126 696.757 179.668 696.757 172.553V156.956C696.757 156.081 697.195 155.643 698.071 155.643H736.161C737.036 155.643 737.474 156.081 737.474 156.956V172.553C737.474 185.141 734.519 196.633 728.608 207.031C722.588 217.32 714.653 225.584 704.802 231.822C694.951 237.952 683.842 241.017 671.474 241.017Z" fill="#121E20"/>
<rect width="237.742" height="237.742" fill="#121E20"/>
<mask id="mask0_13_226" style="mask-type:alpha" maskUnits="userSpaceOnUse" x="0" y="0" width="238" height="238">
<rect width="237.742" height="237.742" fill="#121E20"/>
</mask>
<g mask="url(#mask0_13_226)">
<path d="M144.145 176.493C145.567 169.811 146.658 163.055 148.516 156.492C149.446 153.236 151.785 147.841 153.451 147.864C156.968 147.908 161.968 149.914 163.712 152.749C172.933 167.666 181.562 182.972 189.891 198.396C195.308 208.424 193.795 217.439 183.806 224.197C182.434 225.108 181.173 226.167 179.858 227.177C137.045 260.265 116.745 257.158 87.6072 211.202C84.0953 205.675 84.7357 193.512 88.6135 188.055C98.6574 173.872 111.362 161.505 123.535 148.942C125.966 146.432 130.883 146.308 134.649 145.084C135.826 148.767 137.786 152.397 137.964 156.124C138.246 162.387 137.388 168.722 136.988 175.033C139.363 175.517 141.75 176.02 144.125 176.504L144.145 176.493Z" fill="#00A780"/>
<path d="M204.84 137.558C198.72 134.091 192.374 130.964 186.586 127.02C183.925 125.204 180.4 121.546 180.748 119.25C181.162 116.471 184.937 112.725 187.853 112.036C206.015 107.786 224.241 103.001 242.709 101.226C248.654 100.649 259.081 107.302 261.158 112.937C267.336 129.795 271.107 147.681 274.176 165.442C274.888 169.599 270.284 176.78 266.148 179.291C252.57 187.54 238.066 194.297 223.896 201.598C212.262 207.588 203.423 203.309 197.257 193.209C188.383 178.672 179.962 163.825 172.079 148.723C170.466 145.656 172.092 140.903 172.218 136.925C176.148 137.049 180.209 136.574 183.952 137.433C190.23 138.869 196.318 141.174 202.49 143.116C203.269 141.257 204.069 139.386 204.849 137.527L204.84 137.558Z" fill="#00A780"/>
<path d="M88.496 131.095C95.2199 130.363 101.937 129.111 108.659 129.115C112.337 129.12 116.889 130.385 119.356 132.783C120.552 133.964 118.908 139.933 116.857 142.28C104.965 155.889 93.4747 170.161 79.8438 181.822C74.9788 186.006 62.2223 187.023 56.9824 183.58C42.0339 173.731 28.7697 161.168 15.6407 148.841C13.0381 146.389 12.0308 139.359 13.5303 135.857C20.208 120.233 27.6998 104.933 35.655 89.8932C41.4559 78.9107 50.7841 76.4354 62.1648 81.6282C77.6405 88.7126 93.2726 95.4721 108.609 102.819C111.491 104.195 115.744 108.671 115.167 110.101C113.874 113.458 110.493 116.928 107.137 118.366C100.635 121.147 93.5384 122.563 86.6869 124.547C87.2928 126.719 87.8987 128.891 88.5045 131.064L88.496 131.095Z" fill="#00A780"/>
<path d="M187.447 67.9038C182.792 71.8106 178.379 76.0514 173.426 79.5252C169.781 82.0706 165.42 83.6338 161.39 85.6386C160.039 81.5567 157.293 77.3767 157.571 73.3903C158.743 56.9925 160.867 40.6553 162.57 24.2696C163.876 11.7541 171.092 5.28906 183.333 5.90254C200.294 6.74025 217.266 8.14913 234.078 10.3834C237.885 10.892 243.374 15.3726 244.175 18.9024C248.042 36.4976 251.185 54.2953 253.422 72.1625C254.727 82.6684 249.58 89.8177 238.306 92.0104C221.632 95.2305 205.113 99.2793 188.397 102.287C184.845 102.919 180.751 100.659 176.922 99.7437C178.12 95.5748 178.57 90.9667 180.664 87.3108C183.721 81.9795 187.956 77.2889 191.697 72.329C190.28 70.8539 188.864 69.3788 187.427 67.915L187.447 67.9038Z" fill="#00A780"/>
<path d="M114.548 63.8871C117.289 70.0888 120.562 76.1187 122.589 82.5427C123.743 86.1861 122.887 90.4488 122.945 94.4271C119.42 94.4138 115.462 95.4856 112.483 94.2176C96.3421 87.3019 80.4743 79.7589 64.45 72.5408C54.0979 67.864 50.7229 59.5324 54.422 49.5621C60.7126 32.6115 67.8879 15.9703 75.5266 -0.410089C76.8832 -3.33184 82.5316 -6.23071 85.8693 -5.90095C103.316 -4.21149 120.758 -2.02158 138.015 1.08702C149.072 3.08151 155.169 10.153 153.702 22.3403C151.575 39.7801 149.952 57.2744 147.536 74.6686C147.118 77.7641 144.224 82.5047 141.974 82.8409C139.226 83.2245 135.232 80.3575 133.012 77.7928C128.354 72.4197 124.475 66.341 120.296 60.5643C118.373 61.6587 116.46 62.7729 114.528 63.8984L114.548 63.8871Z" fill="#00A780"/>
<path d="M159.597 134.719C149.331 141.083 134.131 137.067 128.068 126.41C122.467 116.566 126.339 102.145 136.199 96.0373C145.96 89.9858 160.494 93.2009 166.891 102.829C173.442 112.683 169.854 128.385 159.597 134.719Z" fill="#00A780"/>
<line x1="43.7028" y1="175.893" x2="43.7028" y2="488.595" stroke="white" stroke-width="4.11767"/>
<line x1="34.5354" y1="136.308" x2="34.5353" y2="488.595" stroke="#4BC7FD" stroke-width="4.11767"/>
<line x1="25.3679" y1="94.2487" x2="25.3678" y2="488.595" stroke="#338D78" stroke-width="4.11767"/>
<line x1="16.2004" y1="46.5725" x2="16.2003" y2="488.595" stroke="#D8BA1F" stroke-width="4.11767"/>
<line x1="7.03265" y1="-239.585" x2="7.03257" y2="488.595" stroke="#ED7777" stroke-width="4.11767"/>
</g>
</svg>
